<svg width="82" height="82" viewBox="0 0 82 82" fill="none" xmlns="http://www.w3.org/2000/svg">
<g clip-path="url(#clip0_1259_21054)">
<path d="M61.2692 61.5489L61.3416 61.165C61.824 58.6187 60.1334 56.1169 57.5147 55.3183C60.2485 55.511 62.7393 53.7833 63.2218 51.237L63.2942 50.8531C63.7668 48.3584 62.1514 45.9076 59.6231 45.0593C62.2914 45.1712 64.693 43.4664 65.1649 40.9712L65.2385 40.587C65.7593 37.8343 63.7438 35.1297 60.7588 34.5768L52.1217 32.9769L52.1322 32.9144L49.5147 32.4955L43.4802 31.3782C43.3322 29.0908 47.5394 24.9484 48.1917 22.7878C49.1533 19.5813 49.2351 16.1763 48.4287 12.9302C47.911 10.8352 45.4626 8.38821 43.0966 8.65173C41.7994 8.79612 40.8165 9.79056 40.3756 10.8818C39.9348 11.973 39.9239 13.1657 39.8306 14.33C39.5673 17.6409 37.6159 19.679 34.8871 21.8798C32.4952 23.8084 30.616 25.5254 29.6197 28.4397C28.8453 30.7031 26.4279 32.1093 23.8296 31.8054L21.106 31.4863C19.5061 40.6275 17.7856 49.6762 16.426 58.7618C19.0855 59.301 21.7611 59.7454 24.4528 60.095L24.427 60.2582L38.6213 62.5361L54.8979 65.5524C57.8794 66.1014 60.7483 64.3015 61.2692 61.5489Z" fill="#FCFCF0"/>
<path d="M61.3968 44.9483L50.6677 43.3167C50.1943 43.2444 49.9959 43.9765 50.4779 44.0472L61.2085 45.6795C61.683 45.7516 61.881 45.0202 61.399 44.9495L61.3968 44.9483Z" fill="#00153B"/>
<path d="M59.8068 55.5803L49.383 53.9946C48.9084 53.9225 48.7105 54.6539 49.1925 54.7246L59.6163 56.3104C60.0908 56.3824 60.2888 55.651 59.8068 55.5803Z" fill="#00153B"/>
<path d="M48.4919 11.9925L41.1344 10.8732C40.1857 10.7283 39.7919 12.1876 40.753 12.3339L48.1117 13.4529C49.0596 13.5974 49.4531 12.1388 48.4919 11.9925Z" fill="#00153B"/>
<path d="M62.6417 61.3196L62.7059 60.95C63.1288 58.4969 61.3343 56.0913 58.6384 55.3292C61.4358 55.5071 63.9331 53.8374 64.3571 51.3841L64.4208 51.0152C64.8356 48.6108 63.1196 46.2553 60.5141 45.4434C63.242 45.546 65.6495 43.8968 66.065 41.4929L66.1284 41.1228C66.5863 38.471 64.4545 35.8707 61.3903 35.3463L40.025 31.6854C36.9612 31.1604 34.08 32.9007 33.6217 35.5533L33.5582 35.9234C33.1427 38.3273 34.8588 40.6829 37.4653 41.4944C34.7363 41.3922 32.3293 43.0406 31.9145 45.445L31.8504 45.8146C31.4271 48.2683 33.2213 50.6728 35.9175 51.4361C33.1205 51.2574 30.6225 52.9267 30.1992 55.3804L30.135 55.7501C29.6774 58.4031 31.8096 61.0026 34.8731 61.5266L56.2385 65.1875C59.3022 65.7125 62.1835 63.9722 62.6417 61.3196Z" fill="#FCFCF0"/>
<path d="M61.5842 34.6172L48.5761 32.3889L41.3337 31.1476C38.9807 30.7415 36.6141 30.6999 34.6646 32.3592C33.221 33.5886 32.5042 35.6071 32.8185 37.4781C33.2152 39.8386 35.1073 41.4777 37.2767 42.2264L37.4676 40.7432C34.4853 40.7176 31.655 42.4455 31.1433 45.533C30.618 48.705 32.8239 51.2528 35.7328 52.1694L35.9233 50.687C32.1127 50.5565 28.5003 53.6309 29.4752 57.6719C30.1489 60.4647 32.6952 61.9205 35.3361 62.3729L50.8108 65.0214L56.06 65.9215C57.0092 66.0886 57.4 64.6247 56.4414 64.4608L45.5116 62.5876L38.1402 61.3242C36.8961 61.1116 35.5738 60.9948 34.3563 60.6338C32.2635 60.0141 30.5641 58.1206 30.8909 55.8454C31.2522 53.3312 33.5613 52.1109 35.9307 52.1922C36.812 52.2249 36.9076 50.9562 36.1212 50.7098C33.9346 50.0188 32.2206 48.1388 32.6402 45.7343C33.0494 43.3791 35.2535 42.2335 37.4821 42.2526C38.3738 42.2607 38.4482 41.037 37.669 40.7681C35.5932 40.0515 33.9713 38.2342 34.3324 35.9312C34.6255 34.0651 36.1019 32.7937 37.9203 32.4464C39.3755 32.1685 40.9617 32.6119 42.3947 32.8563L57.0069 35.3603L61.2144 36.0809C62.1636 36.248 62.554 34.7848 61.5951 34.6197L61.5842 34.6172Z" fill="#00153B"/>
<path d="M62.2608 44.3728L37.5139 40.133C36.5647 39.9659 36.1743 41.4291 37.1329 41.593L61.8801 45.834C62.8293 46.0011 63.2197 44.5379 62.2608 44.3728Z" fill="#00153B"/>
<path d="M60.3471 55.4567L35.6361 51.2223C34.6869 51.0553 34.2965 52.5185 35.2558 52.6828L59.9661 56.9168C60.9153 57.0838 61.3057 55.6207 60.3471 55.4567Z" fill="#00153B"/>
<path d="M38.0947 31.7214L33.0867 60.7256C32.9182 61.676 34.3805 62.0641 34.5459 61.1043C36.2152 51.4362 37.8841 41.7682 39.5527 32.1003C39.7212 31.15 38.2601 30.7616 38.0943 31.7221L38.0947 31.7214Z" fill="#00153B"/>
<path d="M21.109 31.4813L12.9883 30.1699L8.54234 57.4797L16.663 58.7911L21.109 31.4813Z" fill="#2367ED"/>
</g>
<defs>
<clipPath id="clip0_1259_21054">
<rect width="58.8385" height="60.2736" fill="white" transform="translate(30.1855 0.382324) rotate(30)"/>
</clipPath>
</defs>
</svg>
